<?xml version="1.0"?>
<svg xmlns="http://www.w3.org/2000/svg" id="Layer_5" enable-background="new 0 0 64 64" height="512px" viewBox="0 0 64 64" width="512px"><g><path d="m50 47c-1.654 0-3 1.346-3 3s1.346 3 3 3 3-1.346 3-3-1.346-3-3-3zm0 4c-.552 0-1-.448-1-1s.448-1 1-1 1 .448 1 1-.448 1-1 1z" data-original="#000000" class="active-path" data-old_color="#000000" fill="#178017"/><path d="m14 47c-1.654 0-3 1.346-3 3s1.346 3 3 3 3-1.346 3-3-1.346-3-3-3zm0 4c-.552 0-1-.448-1-1s.448-1 1-1 1 .448 1 1-.448 1-1 1z" data-original="#000000" class="active-path" data-old_color="#000000" fill="#178017"/><path d="m36.388 39h-7.189l-2.323 10.452 2.963 1.975-2.165 7.573h5.003l4.553-11.382-3.039-2.026zm-1.617 9.382-3.448 8.618h-.997l1.836-6.427-3.037-2.025 1.677-7.548h2.811l-1.803 5.408z" data-original="#000000" class="active-path" data-old_color="#000000" fill="#178017"/><path d="m63 23c0-2.206-1.794-4-4-4h-6c-1.103 0-2-.897-2-2s.897-2 2-2h6c2.206 0 4-1.794 4-4s-1.794-4-4-4h-36.053c-.265-2.246-2.159-4-4.475-4-2.771 0-5.546-.655-8.024-1.895l-.212-.105h-5.236v2h-4v2h4v6h-4v2h4v2h5.236l.211-.105c2.479-1.24 5.254-1.895 8.025-1.895 2.316 0 4.21-1.754 4.475-4h36.053c1.103 0 2 .897 2 2s-.897 2-2 2h-6c-2.206 0-4 1.794-4 4s1.794 4 4 4h6c1.103 0 2 .897 2 2s-.897 2-2 2h-10.215c-2.378-3.723-6.49-6-10.953-6h-18.41c-5.457 0-10.37 3.448-12.226 8.581l-5.861 16.215c-.222.697-.335 1.42-.335 2.149 0 3.762 2.963 6.837 6.676 7.036 1.122 2.371 3.532 4.019 6.324 4.019 2.785 0 5.188-1.639 6.315-4h2.685v7c0 1.654 1.346 3 3 3h12c1.654 0 3-1.346 3-3v-7h2.685c1.126 2.361 3.53 4 6.315 4s5.188-1.639 6.315-4h1.685c2.757 0 5-2.243 5-5v-8.081c0-3.324-2.366-6.212-5.627-6.864l-4.716-.943-2.751-5.112h9.094c2.206 0 4-1.794 4-4zm-56-20h2v10h-2zm14 5.472c0 1.394-1.134 2.528-2.528 2.528-2.551 0-5.104.505-7.472 1.459v-8.918c2.367.954 4.92 1.459 7.472 1.459 1.394 0 2.528 1.134 2.528 2.528zm-16.945 40.528h3.025c-.047.328-.08.66-.08 1 0 .306.026.604.065.9-1.225-.245-2.277-.943-3.01-1.9zm9.945 6c-2.757 0-5-2.243-5-5s2.243-5 5-5 5 2.243 5 5-2.243 5-5 5zm29.685-8h-2.685v-9c0-1.654-1.346-3-3-3h-1v-1h9v10.264c-.991.693-1.79 1.636-2.315 2.736zm-9.685-16c.552 0 1 .448 1 1v3h-6v-3c0-.552.448-1 1-1zm3 1c0-1.654-1.346-3-3-3h-1v-4h5.47c1.814 0 3.489.985 4.371 2.571l2.46 4.429zm-6-3h-1c-1.654 0-3 1.346-3 3h-14v-1.838l.581-1.743c.682-2.045 2.588-3.419 4.743-3.419h12.676zm-18 5h14v1h-1c-1.654 0-3 1.346-3 3v9h-2.685c-1.126-2.361-3.53-4-6.315-4-.34 0-.672.033-1 .08zm7.92 17c.047-.328.08-.66.08-1s-.033-.672-.08-1h2.08v2zm18.08 9c0 .552-.448 1-1 1h-12c-.552 0-1-.448-1-1v-22c0-.552.448-1 1-1h12c.552 0 1 .448 1 1zm2-9v-2h2.08c-.047.328-.08.66-.08 1s.033.672.08 1zm9 4c-2.757 0-5-2.243-5-5s2.243-5 5-5 5 2.243 5 5-2.243 5-5 5zm8-4h-1.08c.047-.328.08-.66.08-1s-.033-.672-.08-1h3.896c-.414 1.161-1.514 2-2.816 2zm3-11.081v2.987c-.331.057-.665.094-1 .094-3.309 0-6-2.691-6-6 0-.853.192-1.694.546-2.471l2.434.487c2.33.466 4.02 2.528 4.02 4.903zm-8.447-5.788c-.355.915-.553 1.885-.553 2.869 0 4.411 3.589 8 8 8 .335 0 .668-.031 1-.073v2.073h-4.685c-1.126-2.361-3.53-4-6.315-4-.695 0-1.366.105-2 .295v-10.554l-3.411-6.141c-1.235-2.22-3.579-3.6-6.119-3.6h-20.146c-3.018 0-5.687 1.924-6.64 4.786l-.684 2.052v13.847c-1.45.692-2.623 1.865-3.315 3.315h-4.57c-.073-.341-.115-.693-.115-1.055 0-.522.081-1.041.229-1.506l5.849-16.179c1.569-4.342 5.727-7.26 10.344-7.26h18.41c4.053 0 7.764 2.217 9.686 5.784l3.825 7.104z" data-original="#000000" class="active-path" data-old_color="#000000" fill="#178017"/><path d="m15 36h2v2h-2z" data-original="#000000" class="active-path" data-old_color="#000000" fill="#178017"/><path d="m15 40h2v2h-2z" data-original="#000000" class="active-path" data-old_color="#000000" fill="#178017"/></g> </svg>
