<?xml version="1.0"?>
<svg xmlns="http://www.w3.org/2000/svg" xmlns:xlink="http://www.w3.org/1999/xlink" version="1.1" id="Capa_1" x="0px" y="0px" viewBox="0 0 511 511" style="enable-background:new 0 0 511 511;" xml:space="preserve" width="512px" height="512px" class=""><g><g>
	<g>
		<path d="M413.609,124.94c-2.155-0.132-4.242,0.665-5.761,2.183L127.122,407.849c-1.519,1.519-2.313,3.616-2.183,5.76    s1.175,4.129,2.867,5.452C164.576,447.806,208.731,463,255.5,463C369.916,463,463,369.916,463,255.5    c0-46.768-15.193-90.923-43.939-127.693C417.738,126.115,415.753,125.071,413.609,124.94z M315.206,243h4.294    c15.715,0,28.5,12.785,28.5,28.5v12c0,4.142,3.357,7.5,7.5,7.5H408v9h-52.5c-4.143,0-7.5,3.358-7.5,7.5v12    c0,15.715-12.785,28.5-28.5,28.5h-76c-9.262,0-17.928-4.567-23.25-12.065l6.5-6.5c3.404,5.716,9.628,9.566,16.749,9.566h76    c10.752,0,19.5-8.748,19.5-19.5v-12c0-4.142-3.357-7.5-7.5-7.5h-75.315l9-9H331.5c4.143,0,7.5-3.358,7.5-7.5v-12    c0-10.752-8.748-19.5-19.5-19.5h-15.315l9.225-9.225C313.987,242.917,314.586,243,315.206,243z M243.5,315H324v4.5    c0,2.481-2.019,4.5-4.5,4.5h-76c-2.481,0-4.5-2.019-4.5-4.5S241.019,315,243.5,315z M289.483,266.702    c0.66,0.19,1.355,0.298,2.076,0.298H319.5c2.481,0,4.5,2.019,4.5,4.5v4.5h-43.815L289.483,266.702z M255.5,448    c-40.538,0-78.959-12.303-111.648-35.667l65.698-65.698C217.741,356.855,230.217,363,243.5,363h76c23.986,0,43.5-19.514,43.5-43.5    V315h52.5c4.143,0,7.5-3.358,7.5-7.5v-24c0-4.142-3.357-7.5-7.5-7.5H363v-4.5c0-21.272-15.352-39.014-35.555-42.76l84.888-84.888    C435.696,176.542,448,214.962,448,255.5C448,361.645,361.645,448,255.5,448z" data-original="#000000" class="active-path" data-old_color="#000000" fill="#178017"/>
		<path d="M386.776,97.968c-0.126-2.138-1.16-4.121-2.842-5.448c-27.417-21.634-60.053-36.066-94.378-41.737    c-4.088-0.671-7.947,2.091-8.622,6.177c-0.676,4.087,2.09,7.947,6.177,8.623c29.057,4.8,56.813,16.375,80.776,33.621    L238.893,228.198c-0.543-0.125-1.106-0.198-1.687-0.198H181.5c-14.872,0-52.563-30.625-72.826-49.93    C103.993,173.612,96,177.048,96,183.5v128c0,6.441,7.99,9.896,12.674,5.429C128.93,297.625,166.613,267,181.5,267h18.59    L99.198,367.892C75.486,335.049,63,296.372,63,255.5C63,149.355,149.355,63,255.5,63c4.143,0,7.5-3.358,7.5-7.5    s-3.357-7.5-7.5-7.5C141.084,48,48,141.084,48,255.5c0,47.113,15.395,91.525,44.521,128.435c1.327,1.682,3.31,2.715,5.448,2.841    c0.146,0.008,0.293,0.013,0.439,0.013c1.983,0,3.893-0.786,5.304-2.197l280.881-280.881    C386.107,102.196,386.901,100.106,386.776,97.968z M181.5,252c-11.6,0-28.746,9.028-52.418,27.599    c-6.763,5.306-13.009,10.576-18.082,15.002v-94.203c5.073,4.426,11.319,9.696,18.082,15.002C152.754,233.972,169.9,243,181.5,243    h42.59l-9,9H181.5z" data-original="#000000" class="active-path" data-old_color="#000000" fill="#178017"/>
		<path d="M500.046,181.069c-12.028-39.701-33.719-76.074-63.88-106.235c-28.653-28.653-62.913-49.662-100.305-62.004    c-5.904-1.949-11.886-3.681-17.937-5.194c-4.034-1.008-8.098-1.919-12.189-2.73C289.368,1.661,272.562,0,255.5,0    s-33.868,1.661-50.235,4.907c-4.092,0.811-8.156,1.722-12.189,2.73c-6.051,1.512-12.033,3.245-17.937,5.194    c-37.393,12.341-71.652,33.351-100.305,62.004c-30.161,30.161-51.853,66.535-63.88,106.235C3.737,204.89,0,229.907,0,255.5    c0,68.247,26.576,132.408,74.834,180.666C123.092,484.423,187.253,511,255.5,511s132.408-26.577,180.666-74.834    C484.424,387.908,511,323.747,511,255.5C511,229.907,507.263,204.89,500.046,181.069z M255.5,496C122.888,496,15,388.112,15,255.5    S122.888,15,255.5,15S496,122.888,496,255.5S388.112,496,255.5,496z" data-original="#000000" class="active-path" data-old_color="#000000" fill="#178017"/>
	</g>
</g></g> </svg>
